<svg xmlns="http://www.w3.org/2000/svg" viewBox="0 0 512 512" width="512" height="512">
  <rect width="512" height="512" rx="96" fill="#0f1923"/>
  <rect x="20" y="20" width="472" height="472" rx="80" fill="#141e28" stroke="#ff4655" stroke-width="6" stroke-opacity="0.5"/>
  <defs>
    <linearGradient id="spikeGrad512" x1="0%" y1="0%" x2="100%" y2="100%">
      <stop offset="0%" stop-color="#ff4655"/>
      <stop offset="100%" stop-color="#cc1124"/>
    </linearGradient>
    <filter id="glow512" x="-20%" y="-20%" width="140%" height="140%">
      <feGaussianBlur stdDeviation="16" result="blur" />
      <feComposite in="SourceGraphic" in2="blur" operator="over" />
    </filter>
  </defs>
  <!-- Flame / Spike Icon -->
  <g transform="translate(136, 95) scale(2.4)" filter="url(#glow512)">
    <path d="M50 0C50 0 32 25 32 45C32 55 37 63 43 68C42 64 42 60 44 56C47 50 53 45 56 39C61 50 68 62 68 76C68 95 53 110 34 110C15 110 0 95 0 76C0 50 20 28 30 15C31 28 38 38 46 44C44 32 46 16 50 0Z" fill="url(#spikeGrad512)"/>
    <path d="M48 60C48 60 38 72 38 82C38 88 41 93 45 96C44 94 44 92 45 90C47 86 50 83 52 79C55 86 59 93 59 101C59 111 51 119 41 119C31 119 23 111 23 101C23 87 34 75 39 68C40 75 44 80 48 84C47 77 47 69 48 60Z" fill="#ffffff" opacity="0.9"/>
  </g>
  <!-- Text snippet -->
  <text x="256" y="440" font-family="system-ui, -apple-system, sans-serif" font-size="42" font-weight="900" fill="#ffffff" text-anchor="middle" letter-spacing="8">SPIKE NEWS</text>
</svg>
